{"title":"Fury 2014 English Movies DVDScr XViD New Source +Sample ~ â˜»rDXâ˜»","uid":11600208,"size":736714816,"categoryP":"video","categoryS":"movies","magnet":"?xt=urn:btih:3fd0d32aaf6411074c53ac8ef3b727c3af98d4b3&amp;dn=Fury+2014+English+Movies+DVDScr+XViD+New+Source+%2BSample+%7E+%E2%98%BBrDX%E2%98%BB&amp;tr=udp%3A%2F%2Ftracker.openbittorrent.com%3A80&amp;tr=udp%3A%2F%2Fopen.demonii.com%3A1337&amp;tr=udp%3A%2F%2Ftracker.coppersurfer.tk%3A6969&amp;tr=udp%3A%2F%2Fexodus.desync.com%3A6969","seeders":4,"leechers":0,"uploader":"basicssom","files":2,"time":1417331909,"description":"----------------------------------------------------------------\nFury 2014 English Movies DVDScr XViD New Source with Sample ~ â˜»rDXâ˜»\n\nSCREEN SHOTS &amp; POSTER:\n &lt;a href=&quot;\nhttp://planethost.co.nr/7/Fury/11.html&quot; rel=&quot;nofollow&quot; target=&quot;_NEW&quot;&gt;\nhttp://planethost.co.nr/7/Fury/11.html&lt;/a&gt; &lt;a href=&quot;\nhttp://planethost.co.nr/7/Fury/1.html&quot; rel=&quot;nofollow&quot; target=&quot;_NEW&quot;&gt;\nhttp://planethost.co.nr/7/Fury/1.html&lt;/a&gt; &lt;a href=&quot;\nhttp://planethost.co.nr/7/Fury/2.html&quot; rel=&quot;nofollow&quot; target=&quot;_NEW&quot;&gt;\nhttp://planethost.co.nr/7/Fury/2.html&lt;/a&gt; &lt;a href=&quot;\nhttp://planethost.co.nr/7/Fury/3.html&quot; rel=&quot;nofollow&quot; target=&quot;_NEW&quot;&gt;\nhttp://planethost.co.nr/7/Fury/3.html&lt;/a&gt; &lt;a href=&quot;\nhttp://planethost.co.nr/7/Fury/4.html&quot; rel=&quot;nofollow&quot; target=&quot;_NEW&quot;&gt;\nhttp://planethost.co.nr/7/Fury/4.html&lt;/a&gt; &lt;a href=&quot;\nhttp://planethost.co.nr/7/Fury/5.html&quot; rel=&quot;nofollow&quot; target=&quot;_NEW&quot;&gt;\nhttp://planethost.co.nr/7/Fury/5.html&lt;/a&gt; &lt;a href=&quot;\nhttp://planethost.co.nr/7/Fury/6.html&quot; rel=&quot;nofollow&quot; target=&quot;_NEW&quot;&gt;\nhttp://planethost.co.nr/7/Fury/6.html&lt;/a&gt; &lt;a href=&quot;\nhttp://planethost.co.nr/7/Fury/7.html&quot; rel=&quot;nofollow&quot; target=&quot;_NEW&quot;&gt;\nhttp://planethost.co.nr/7/Fury/7.html&lt;/a&gt; &lt;a href=&quot;\nhttp://planethost.co.nr/7/Fury/8.html&quot; rel=&quot;nofollow&quot; target=&quot;_NEW&quot;&gt;\nhttp://planethost.co.nr/7/Fury/8.html&lt;/a&gt; &lt;a href=&quot;\nhttp://planethost.co.nr/7/Fury/9.html&quot; rel=&quot;nofollow&quot; target=&quot;_NEW&quot;&gt;\nhttp://planethost.co.nr/7/Fury/9.html&lt;/a&gt; &lt;a href=&quot;\nhttp://planethost.co.nr/7/Fury/10.html&quot; rel=&quot;nofollow&quot; target=&quot;_NEW&quot;&gt;\nhttp://planethost.co.nr/7/Fury/10.html&lt;/a&gt;\n\nFormat                                   : Matroska\nFormat version                           : Version 4 / Version 2\nFile size                                : 692 MiB\nDuration                                 : 2h 14mn\nOverall bit rate                         : 717 Kbps\n\nVideo\nID                                       : 1\nFormat                                   : MPEG-4 Visual\nFormat profile                           : Advanced Simple@L5\nFormat settings, BVOP                    : Yes\nFormat settings, QPel                    : No\nFormat settings, GMC                     : No warppoints\nFormat settings, Matrix                  : Default (H.263)\nCodec ID                                 : V_MS/VFW/FOURCC / XVID\nCodec ID/Hint                            : XviD\nDuration                                 : 2h 14mn\nBit rate                                 : 607 Kbps\nWidth                                    : 640 pixels\nHeight                                   : 272 pixels\nDisplay aspect ratio                     : 2.35:1\nFrame rate mode                          : Constant\nFrame rate                               : 23.976 fps\nColor space                              : YUV\nChroma subsampling                       : 4:2:0\nBit depth                                : 8 bits\nScan type                                : Progressive\nCompression mode                         : Lossy\nBits/(Pixel*Frame)                       : 0.145\nStream size                              : 586 MiB (85%)\nTitle                                    : ~ rDX ~\nWriting library                          : XviD 65\nDefault                                  : Yes\nForced                                   : No\n\nAudio\nID                                       : 2\nFormat                                   : MPEG Audio\nFormat version                           : Version 1\nFormat profile                           : Layer 3\nMode                                     : Joint stereo\nMode extension                           : MS Stereo\nCodec ID                                 : A_MPEG/L3\nCodec ID/Hint                            : MP3\nDuration                                 : 2h 14mn\nBit rate mode                            : Constant\nBit rate                                 : 96.0 Kbps\nChannel(s)                               : 2 channels\nSampling rate                            : 48.0 KHz\nCompression mode                         : Lossy\nStream size                              : 92.7 MiB (13%)\nTitle                                    : ~ rDX ~\nWriting library                          : LAME3.99r\nEncoding settings                        : -m j -V 4 -q 3 -lowpass 15.1 -b 96\nDefault                                  : Yes\nForced                                   : No","torrent":{"xt":"urn:btih:3fd0d32aaf6411074c53ac8ef3b727c3af98d4b3","amp;dn":"Fury+2014+English+Movies+DVDScr+XViD+New+Source+%2BSample+%7E+%E2%98%BBrDX%E2%98%BB","amp;tr":["udp%3A%2F%2Ftracker.openbittorrent.com%3A80","udp%3A%2F%2Fopen.demonii.com%3A1337","udp%3A%2F%2Ftracker.coppersurfer.tk%3A6969","udp%3A%2F%2Fexodus.desync.com%3A6969"],"infoHash":"3fd0d32aaf6411074c53ac8ef3b727c3af98d4b3","infoHashBuffer":{"type":"Buffer","data":[63,208,211,42,175,100,17,7,76,83,172,142,243,183,39,195,175,152,212,179]},"announce":[],"urlList":[]}}